<?xml version="1.0" encoding="UTF-8" standalone="no"?>
<!DOCTYPE svg PUBLIC "-//W3C//DTD SVG 1.1//EN"
 "http://www.w3.org/Graphics/SVG/1.1/DTD/svg11.dtd">
<!-- Generated by graphviz version 3.0.0 (20220226.1711)
 -->
<!-- Pages: 1 -->
<svg width="1049pt" height="520pt"
 viewBox="0.00 0.00 1049.25 519.98" xmlns="http://www.w3.org/2000/svg" xmlns:xlink="http://www.w3.org/1999/xlink">
<g id="graph0" class="graph" transform="scale(1 1) rotate(0) translate(36 483.98)">
<polygon fill="white" stroke="transparent" points="-36,36 -36,-483.98 1013.25,-483.98 1013.25,36 -36,36"/>
<!-- redis -->
<g id="node1" class="node">
<title>redis</title>
<polygon fill="none" stroke="black" points="243.25,-125 155.25,-125 155.25,-121 151.25,-121 151.25,-117 155.25,-117 155.25,-95 151.25,-95 151.25,-91 155.25,-91 155.25,-87 243.25,-87 243.25,-125"/>
<polyline fill="none" stroke="black" points="155.25,-121 159.25,-121 159.25,-117 155.25,-117 "/>
<polyline fill="none" stroke="black" points="155.25,-95 159.25,-95 159.25,-91 155.25,-91 "/>
<text text-anchor="middle" x="199.25" y="-109.8" font-family="Times New Roman,serif" font-size="14.00">redis</text>
<text text-anchor="middle" x="199.25" y="-94.8" font-family="Times New Roman,serif" font-size="14.00">(redis:alpine)</text>
</g>
<!-- frontend -->
<g id="node2" class="node">
<title>frontend</title>
<polygon fill="none" stroke="black" points="338.11,-23.56 271.25,-36 204.38,-23.56 229.92,-3.44 312.57,-3.44 338.11,-23.56"/>
<text text-anchor="middle" x="271.25" y="-14.3" font-family="Times New Roman,serif" font-size="14.00">net:frontend</text>
</g>
<!-- redis&#45;&gt;frontend -->
<g id="edge1" class="edge">
<title>redis&#45;&gt;frontend</title>
<path fill="none" stroke="black" d="M214.51,-86.76C225.56,-73.57 240.55,-55.67 252.34,-41.58"/>
<polygon fill="black" stroke="black" points="255.13,-43.7 258.87,-33.78 249.76,-39.2 255.13,-43.7"/>
</g>
<!-- 0.0.0.06379 -->
<g id="node3" class="node">
<title>0.0.0.06379</title>
<ellipse fill="none" stroke="black" cx="55.25" cy="-231.25" rx="55.49" ry="55.49"/>
<text text-anchor="middle" x="55.25" y="-227.55" font-family="Times New Roman,serif" font-size="14.00">0.0.0.0:6379</text>
</g>
<!-- 0.0.0.06379&#45;&gt;redis -->
<g id="edge2" class="edge">
<title>0.0.0.06379&#45;&gt;redis</title>
<path fill="none" stroke="black" d="M96.9,-194.6C120.47,-174.43 149.35,-149.71 170.41,-131.68"/>
<polygon fill="black" stroke="black" points="172.75,-134.28 178.07,-125.12 168.2,-128.96 172.75,-134.28"/>
<text text-anchor="middle" x="171.25" y="-146.8" font-family="Times New Roman,serif" font-size="14.00">6379</text>
</g>
<!-- db -->
<g id="node4" class="node">
<title>db</title>
<polygon fill="none" stroke="black" points="711.25,-125 617.25,-125 617.25,-121 613.25,-121 613.25,-117 617.25,-117 617.25,-95 613.25,-95 613.25,-91 617.25,-91 617.25,-87 711.25,-87 711.25,-125"/>
<polyline fill="none" stroke="black" points="617.25,-121 621.25,-121 621.25,-117 617.25,-117 "/>
<polyline fill="none" stroke="black" points="617.25,-95 621.25,-95 621.25,-91 617.25,-91 "/>
<text text-anchor="middle" x="664.25" y="-109.8" font-family="Times New Roman,serif" font-size="14.00">db</text>
<text text-anchor="middle" x="664.25" y="-94.8" font-family="Times New Roman,serif" font-size="14.00">(postgres:9.4)</text>
</g>
<!-- backend -->
<g id="node5" class="node">
<title>backend</title>
<polygon fill="none" stroke="black" points="624.11,-23.56 557.25,-36 490.38,-23.56 515.92,-3.44 598.57,-3.44 624.11,-23.56"/>
<text text-anchor="middle" x="557.25" y="-14.3" font-family="Times New Roman,serif" font-size="14.00">net:backend</text>
</g>
<!-- db&#45;&gt;backend -->
<g id="edge3" class="edge">
<title>db&#45;&gt;backend</title>
<path fill="none" stroke="black" d="M642.99,-86.82C631.36,-76.97 616.63,-64.67 603.25,-54 597.1,-49.1 590.4,-43.91 584.07,-39.08"/>
<polygon fill="black" stroke="black" points="585.83,-36.03 575.75,-32.77 581.6,-41.6 585.83,-36.03"/>
</g>
<!-- db&#45;data -->
<g id="node6" class="node">
<title>db&#45;data</title>
<path fill="none" stroke="black" d="M700.75,-32.73C700.75,-34.53 687.52,-36 671.25,-36 654.97,-36 641.75,-34.53 641.75,-32.73 641.75,-32.73 641.75,-3.27 641.75,-3.27 641.75,-1.47 654.97,0 671.25,0 687.52,0 700.75,-1.47 700.75,-3.27 700.75,-3.27 700.75,-32.73 700.75,-32.73"/>
<path fill="none" stroke="black" d="M700.75,-32.73C700.75,-30.92 687.52,-29.45 671.25,-29.45 654.97,-29.45 641.75,-30.92 641.75,-32.73"/>
<text text-anchor="middle" x="671.25" y="-14.3" font-family="Times New Roman,serif" font-size="14.00">db&#45;data</text>
</g>
<!-- db&#45;&gt;db&#45;data -->
<g id="edge4" class="edge">
<title>db&#45;&gt;db&#45;data</title>
<path fill="none" stroke="black" stroke-dasharray="5,2" d="M666.56,-76.58C667.35,-66.83 668.24,-55.95 669.02,-46.3"/>
<polygon fill="black" stroke="black" points="663.05,-76.51 665.73,-86.76 670.03,-77.08 663.05,-76.51"/>
<polygon fill="black" stroke="black" points="672.54,-46.29 669.86,-36.04 665.56,-45.73 672.54,-46.29"/>
<text text-anchor="middle" x="733.25" y="-57.8" font-family="Times New Roman,serif" font-size="14.00">/var/lib/postgresql/data</text>
</g>
<!-- vote -->
<g id="node7" class="node">
<title>vote</title>
<polygon fill="none" stroke="black" points="413.75,-250.25 128.75,-250.25 128.75,-246.25 124.75,-246.25 124.75,-242.25 128.75,-242.25 128.75,-220.25 124.75,-220.25 124.75,-216.25 128.75,-216.25 128.75,-212.25 413.75,-212.25 413.75,-250.25"/>
<polyline fill="none" stroke="black" points="128.75,-246.25 132.75,-246.25 132.75,-242.25 128.75,-242.25 "/>
<polyline fill="none" stroke="black" points="128.75,-220.25 132.75,-220.25 132.75,-216.25 128.75,-216.25 "/>
<text text-anchor="middle" x="271.25" y="-235.05" font-family="Times New Roman,serif" font-size="14.00">vote</text>
<text text-anchor="middle" x="271.25" y="-220.05" font-family="Times New Roman,serif" font-size="14.00">(dockersamples/examplevotingapp_vote:before)</text>
</g>
<!-- vote&#45;&gt;redis -->
<g id="edge7" class="edge">
<title>vote&#45;&gt;redis</title>
<path fill="none" stroke="black" stroke-dasharray="1,5" d="M260.62,-212.06C248.6,-191.49 228.91,-157.78 215.08,-134.1"/>
<polygon fill="black" stroke="black" points="217.98,-132.13 209.91,-125.26 211.93,-135.66 217.98,-132.13"/>
</g>
<!-- vote&#45;&gt;frontend -->
<g id="edge5" class="edge">
<title>vote&#45;&gt;frontend</title>
<path fill="none" stroke="black" d="M271.25,-212.23C271.25,-175.17 271.25,-90.15 271.25,-46.29"/>
<polygon fill="black" stroke="black" points="274.75,-46.08 271.25,-36.08 267.75,-46.08 274.75,-46.08"/>
</g>
<!-- 0.0.0.05000 -->
<g id="node8" class="node">
<title>0.0.0.05000</title>
<ellipse fill="none" stroke="black" cx="271.25" cy="-392.74" rx="55.49" ry="55.49"/>
<text text-anchor="middle" x="271.25" y="-389.04" font-family="Times New Roman,serif" font-size="14.00">0.0.0.0:5000</text>
</g>
<!-- 0.0.0.05000&#45;&gt;vote -->
<g id="edge6" class="edge">
<title>0.0.0.05000&#45;&gt;vote</title>
<path fill="none" stroke="black" d="M271.25,-337.29C271.25,-311.63 271.25,-282.06 271.25,-260.85"/>
<polygon fill="black" stroke="black" points="274.75,-260.58 271.25,-250.58 267.75,-260.58 274.75,-260.58"/>
<text text-anchor="middle" x="278.25" y="-308.29" font-family="Times New Roman,serif" font-size="14.00">80</text>
</g>
<!-- result -->
<g id="node9" class="node">
<title>result</title>
<polygon fill="none" stroke="black" points="759.75,-250.25 468.75,-250.25 468.75,-246.25 464.75,-246.25 464.75,-242.25 468.75,-242.25 468.75,-220.25 464.75,-220.25 464.75,-216.25 468.75,-216.25 468.75,-212.25 759.75,-212.25 759.75,-250.25"/>
<polyline fill="none" stroke="black" points="468.75,-246.25 472.75,-246.25 472.75,-242.25 468.75,-242.25 "/>
<polyline fill="none" stroke="black" points="468.75,-220.25 472.75,-220.25 472.75,-216.25 468.75,-216.25 "/>
<text text-anchor="middle" x="614.25" y="-235.05" font-family="Times New Roman,serif" font-size="14.00">result</text>
<text text-anchor="middle" x="614.25" y="-220.05" font-family="Times New Roman,serif" font-size="14.00">(dockersamples/examplevotingapp_result:before)</text>
</g>
<!-- result&#45;&gt;db -->
<g id="edge10" class="edge">
<title>result&#45;&gt;db</title>
<path fill="none" stroke="black" stroke-dasharray="1,5" d="M621.62,-212.06C629.89,-191.67 643.4,-158.37 652.99,-134.73"/>
<polygon fill="black" stroke="black" points="656.32,-135.84 656.84,-125.26 649.83,-133.21 656.32,-135.84"/>
</g>
<!-- result&#45;&gt;backend -->
<g id="edge8" class="edge">
<title>result&#45;&gt;backend</title>
<path fill="none" stroke="black" d="M609.39,-212.23C599.29,-174.81 576,-88.52 564.27,-45.04"/>
<polygon fill="black" stroke="black" points="567.6,-43.95 561.62,-35.21 560.84,-45.78 567.6,-43.95"/>
</g>
<!-- 0.0.0.05001 -->
<g id="node10" class="node">
<title>0.0.0.05001</title>
<ellipse fill="none" stroke="black" cx="614.25" cy="-392.74" rx="55.49" ry="55.49"/>
<text text-anchor="middle" x="614.25" y="-389.04" font-family="Times New Roman,serif" font-size="14.00">0.0.0.0:5001</text>
</g>
<!-- 0.0.0.05001&#45;&gt;result -->
<g id="edge9" class="edge">
<title>0.0.0.05001&#45;&gt;result</title>
<path fill="none" stroke="black" d="M614.25,-337.29C614.25,-311.63 614.25,-282.06 614.25,-260.85"/>
<polygon fill="black" stroke="black" points="617.75,-260.58 614.25,-250.58 610.75,-260.58 617.75,-260.58"/>
<text text-anchor="middle" x="621.25" y="-308.29" font-family="Times New Roman,serif" font-size="14.00">80</text>
</g>
<!-- worker -->
<g id="node11" class="node">
<title>worker</title>
<polygon fill="none" stroke="black" points="560.75,-125 299.75,-125 299.75,-121 295.75,-121 295.75,-117 299.75,-117 299.75,-95 295.75,-95 295.75,-91 299.75,-91 299.75,-87 560.75,-87 560.75,-125"/>
<polyline fill="none" stroke="black" points="299.75,-121 303.75,-121 303.75,-117 299.75,-117 "/>
<polyline fill="none" stroke="black" points="299.75,-95 303.75,-95 303.75,-91 299.75,-91 "/>
<text text-anchor="middle" x="430.25" y="-109.8" font-family="Times New Roman,serif" font-size="14.00">worker</text>
<text text-anchor="middle" x="430.25" y="-94.8" font-family="Times New Roman,serif" font-size="14.00">(dockersamples/examplevotingapp_worker)</text>
</g>
<!-- worker&#45;&gt;frontend -->
<g id="edge11" class="edge">
<title>worker&#45;&gt;frontend</title>
<path fill="none" stroke="black" d="M396.91,-86.97C369.54,-72.17 331,-51.32 303.84,-36.63"/>
<polygon fill="black" stroke="black" points="305.2,-33.39 294.74,-31.71 301.87,-39.54 305.2,-33.39"/>
</g>
<!-- worker&#45;&gt;backend -->
<g id="edge12" class="edge">
<title>worker&#45;&gt;backend</title>
<path fill="none" stroke="black" d="M456.87,-86.97C477.96,-72.69 507.37,-52.77 528.9,-38.19"/>
<polygon fill="black" stroke="black" points="530.99,-41 537.31,-32.5 527.07,-35.21 530.99,-41"/>
</g>
<!-- visualizer -->
<g id="node12" class="node">
<title>visualizer</title>
<polygon fill="none" stroke="black" points="942.25,-250.25 778.25,-250.25 778.25,-246.25 774.25,-246.25 774.25,-242.25 778.25,-242.25 778.25,-220.25 774.25,-220.25 774.25,-216.25 778.25,-216.25 778.25,-212.25 942.25,-212.25 942.25,-250.25"/>
<polyline fill="none" stroke="black" points="778.25,-246.25 782.25,-246.25 782.25,-242.25 778.25,-242.25 "/>
<polyline fill="none" stroke="black" points="778.25,-220.25 782.25,-220.25 782.25,-216.25 778.25,-216.25 "/>
<text text-anchor="middle" x="860.25" y="-235.05" font-family="Times New Roman,serif" font-size="14.00">visualizer</text>
<text text-anchor="middle" x="860.25" y="-220.05" font-family="Times New Roman,serif" font-size="14.00">(dockersamples/visualizer)</text>
</g>
<!-- /var/run/docker.sock -->
<g id="node13" class="node">
<title>/var/run/docker.sock</title>
<path fill="none" stroke="black" d="M926.75,-120.73C926.75,-122.53 896.94,-124 860.25,-124 823.55,-124 793.75,-122.53 793.75,-120.73 793.75,-120.73 793.75,-91.27 793.75,-91.27 793.75,-89.47 823.55,-88 860.25,-88 896.94,-88 926.75,-89.47 926.75,-91.27 926.75,-91.27 926.75,-120.73 926.75,-120.73"/>
<path fill="none" stroke="black" d="M926.75,-120.73C926.75,-118.92 896.94,-117.45 860.25,-117.45 823.55,-117.45 793.75,-118.92 793.75,-120.73"/>
<text text-anchor="middle" x="860.25" y="-102.3" font-family="Times New Roman,serif" font-size="14.00">/var/run/docker.sock</text>
</g>
<!-- visualizer&#45;&gt;/var/run/docker.sock -->
<g id="edge13" class="edge">
<title>visualizer&#45;&gt;/var/run/docker.sock</title>
<path fill="none" stroke="black" stroke-dasharray="5,2" d="M860.25,-201.78C860.25,-181.41 860.25,-154.15 860.25,-134.1"/>
<polygon fill="black" stroke="black" points="856.75,-202.06 860.25,-212.06 863.75,-202.06 856.75,-202.06"/>
<polygon fill="black" stroke="black" points="863.75,-134.07 860.25,-124.07 856.75,-134.07 863.75,-134.07"/>
<text text-anchor="middle" x="918.75" y="-146.8" font-family="Times New Roman,serif" font-size="14.00">/var/run/docker.sock</text>
</g>
<!-- 0.0.0.08080 -->
<g id="node14" class="node">
<title>0.0.0.08080</title>
<ellipse fill="none" stroke="black" cx="860.25" cy="-392.74" rx="55.49" ry="55.49"/>
<text text-anchor="middle" x="860.25" y="-389.04" font-family="Times New Roman,serif" font-size="14.00">0.0.0.0:8080</text>
</g>
<!-- 0.0.0.08080&#45;&gt;visualizer -->
<g id="edge14" class="edge">
<title>0.0.0.08080&#45;&gt;visualizer</title>
<path fill="none" stroke="black" d="M860.25,-337.29C860.25,-311.63 860.25,-282.06 860.25,-260.85"/>
<polygon fill="black" stroke="black" points="863.75,-260.58 860.25,-250.58 856.75,-260.58 863.75,-260.58"/>
<text text-anchor="middle" x="874.25" y="-308.29" font-family="Times New Roman,serif" font-size="14.00">8080</text>
</g>
</g>
</svg>
