<?xml version="1.0" encoding="UTF-8" standalone="no"?>
<!DOCTYPE svg PUBLIC "-//W3C//DTD SVG 1.1//EN"
 "http://www.w3.org/Graphics/SVG/1.1/DTD/svg11.dtd">
<!-- Generated by graphviz version 10.0.1 (20240210.2158)
 -->
<!-- Pages: 1 -->
<svg width="1074pt" height="972pt"
 viewBox="0.00 0.00 1074.29 971.68" xmlns="http://www.w3.org/2000/svg" xmlns:xlink="http://www.w3.org/1999/xlink">
<g id="graph0" class="graph" transform="scale(1 1) rotate(0) translate(36 935.68)">
<polygon fill="white" stroke="none" points="-36,36 -36,-935.68 1038.29,-935.68 1038.29,36 -36,36"/>
<g id="clust1" class="cluster">
<title>cluster_key</title>
<polygon fill="none" stroke="black" points="757.29,-8 757.29,-891.68 994.29,-891.68 994.29,-8 757.29,-8"/>
<text text-anchor="middle" x="875.79" y="-874.38" font-family="Times New Roman,serif" font-size="14.00">Legend</text>
</g>
<!-- frontend -->
<g id="node1" class="node">
<title>frontend</title>
<polygon fill="none" stroke="black" points="267.66,-686.69 142.91,-686.69 142.91,-682.69 138.91,-682.69 138.91,-678.69 142.91,-678.69 142.91,-655.19 138.91,-655.19 138.91,-651.19 142.91,-651.19 142.91,-647.19 267.66,-647.19 267.66,-686.69"/>
<polyline fill="none" stroke="black" points="142.91,-682.69 146.91,-682.69 146.91,-678.69 142.91,-678.69"/>
<polyline fill="none" stroke="black" points="142.91,-655.19 146.91,-655.19 146.91,-651.19 142.91,-651.19"/>
<text text-anchor="middle" x="205.29" y="-669.39" font-family="Times New Roman,serif" font-size="14.00">frontend</text>
<text text-anchor="middle" x="205.29" y="-653.64" font-family="Times New Roman,serif" font-size="14.00">(awesome/webapp)</text>
</g>
<!-- front&#45;tier -->
<g id="node2" class="node">
<title>front&#45;tier</title>
<polygon fill="none" stroke="black" points="274.57,-506.15 205.29,-518.59 136,-506.15 162.47,-486.02 248.11,-486.02 274.57,-506.15"/>
<text text-anchor="middle" x="205.29" y="-495.16" font-family="Times New Roman,serif" font-size="14.00">net:front&#45;tier</text>
</g>
<!-- frontend&#45;&gt;front&#45;tier -->
<g id="edge1" class="edge">
<title>frontend&#45;&gt;front&#45;tier</title>
<path fill="none" stroke="black" d="M205.29,-646.76C205.29,-617.95 205.29,-563.33 205.29,-529.92"/>
<polygon fill="black" stroke="black" points="208.79,-530.17 205.29,-520.17 201.79,-530.17 208.79,-530.17"/>
</g>
<!-- back&#45;tier -->
<g id="node3" class="node">
<title>back&#45;tier</title>
<polygon fill="none" stroke="black" points="138.57,-399.18 69.29,-411.61 0,-399.18 26.47,-379.05 112.11,-379.05 138.57,-399.18"/>
<text text-anchor="middle" x="69.29" y="-388.19" font-family="Times New Roman,serif" font-size="14.00">net:back&#45;tier</text>
</g>
<!-- frontend&#45;&gt;back&#45;tier -->
<g id="edge2" class="edge">
<title>frontend&#45;&gt;back&#45;tier</title>
<path fill="none" stroke="black" d="M193.49,-646.83C177.57,-620.73 148.76,-572.24 127.29,-529.19 109,-492.54 90.78,-448.76 79.77,-421.31"/>
<polygon fill="black" stroke="black" points="83.02,-420.02 76.07,-412.03 76.52,-422.61 83.02,-420.02"/>
</g>
<!-- backend -->
<g id="node12" class="node">
<title>backend</title>
<polygon fill="none" stroke="black" points="459.91,-518.59 396.66,-518.59 396.66,-514.59 392.66,-514.59 392.66,-510.59 396.66,-510.59 396.66,-490.59 392.66,-490.59 392.66,-486.59 396.66,-486.59 396.66,-482.59 459.91,-482.59 459.91,-518.59"/>
<polyline fill="none" stroke="black" points="396.66,-514.59 400.66,-514.59 400.66,-510.59 396.66,-510.59"/>
<polyline fill="none" stroke="black" points="396.66,-490.59 400.66,-490.59 400.66,-486.59 396.66,-486.59"/>
<text text-anchor="middle" x="428.29" y="-495.16" font-family="Times New Roman,serif" font-size="14.00">backend</text>
</g>
<!-- frontend&#45;&gt;backend -->
<g id="edge10" class="edge">
<title>frontend&#45;&gt;backend</title>
<path fill="none" stroke="black" d="M238.3,-641.61C280.49,-610.52 353.08,-557.01 395.27,-525.92"/>
<ellipse fill="black" stroke="black" cx="234.93" cy="-644.09" rx="4" ry="4"/>
<polygon fill="black" stroke="black" points="406.47,-522.01 396.34,-525.13 402.32,-516.38 406.47,-522.01"/>
</g>
<!-- monitoring -->
<g id="node4" class="node">
<title>monitoring</title>
<polygon fill="none" stroke="black" points="661.54,-413.36 521.04,-413.36 521.04,-409.36 517.04,-409.36 517.04,-405.36 521.04,-405.36 521.04,-381.86 517.04,-381.86 517.04,-377.86 521.04,-377.86 521.04,-373.86 661.54,-373.86 661.54,-413.36"/>
<polyline fill="none" stroke="black" points="521.04,-409.36 525.04,-409.36 525.04,-405.36 521.04,-405.36"/>
<polyline fill="none" stroke="black" points="521.04,-381.86 525.04,-381.86 525.04,-377.86 521.04,-377.86"/>
<text text-anchor="middle" x="591.29" y="-396.06" font-family="Times New Roman,serif" font-size="14.00">monitoring&#45;server</text>
<text text-anchor="middle" x="591.29" y="-380.31" font-family="Times New Roman,serif" font-size="14.00">(awesome/monitoring)</text>
</g>
<!-- awesome&#45;parent -->
<g id="node5" class="node">
<title>awesome&#45;parent</title>
<polygon fill="none" stroke="black" points="351.29,-315.25 250.84,-297.25 351.29,-279.25 451.73,-297.25 351.29,-315.25"/>
<text text-anchor="middle" x="351.29" y="-291.82" font-family="Times New Roman,serif" font-size="14.00">awesome&#45;parent</text>
</g>
<!-- monitoring&#45;&gt;awesome&#45;parent -->
<g id="edge3" class="edge">
<title>monitoring&#45;&gt;awesome&#45;parent</title>
<path fill="none" stroke="black" d="M555.94,-373.5C531.95,-361 499.26,-344.89 469.29,-333.25 447.84,-324.92 423.57,-317.41 402.64,-311.49"/>
<polygon fill="black" stroke="black" points="403.74,-308.17 393.17,-308.87 401.87,-314.91 403.74,-308.17"/>
</g>
<!-- admin -->
<g id="node6" class="node">
<title>admin</title>
<polygon fill="none" stroke="black" points="583.24,-302.81 526.29,-315.25 469.34,-302.81 491.09,-282.69 561.48,-282.69 583.24,-302.81"/>
<text text-anchor="middle" x="526.29" y="-291.82" font-family="Times New Roman,serif" font-size="14.00">net:admin</text>
</g>
<!-- monitoring&#45;&gt;admin -->
<g id="edge4" class="edge">
<title>monitoring&#45;&gt;admin</title>
<path fill="none" stroke="black" d="M581.07,-373.36C574.49,-361.48 565.47,-346.1 556.29,-333.25 553.46,-329.29 550.28,-325.25 547.09,-321.37"/>
<polygon fill="black" stroke="black" points="549.87,-319.25 540.72,-313.92 544.55,-323.79 549.87,-319.25"/>
</g>
<!-- tools -->
<g id="node10" class="node">
<title>tools</title>
<polygon fill="none" stroke="black" points="601.31,-291.69 637.29,-279.25 673.27,-291.69 673.23,-311.81 601.34,-311.81 601.31,-291.69"/>
<text text-anchor="middle" x="637.29" y="-291.82" font-family="Times New Roman,serif" font-size="14.00">tools</text>
</g>
<!-- monitoring&#45;&gt;tools -->
<g id="edge8" class="edge">
<title>monitoring&#45;&gt;tools</title>
<path fill="none" stroke="black" d="M600.6,-373.52C607.8,-358.73 617.84,-338.15 625.59,-322.25"/>
<polygon fill="black" stroke="black" points="628.63,-324 629.87,-313.47 622.34,-320.93 628.63,-324"/>
</g>
<!-- foo -->
<g id="node11" class="node">
<title>foo</title>
<polygon fill="none" stroke="black" points="691.09,-291.69 720.29,-279.25 749.48,-291.69 749.45,-311.81 691.12,-311.81 691.09,-291.69"/>
<text text-anchor="middle" x="720.29" y="-291.82" font-family="Times New Roman,serif" font-size="14.00">foo</text>
</g>
<!-- monitoring&#45;&gt;foo -->
<g id="edge9" class="edge">
<title>monitoring&#45;&gt;foo</title>
<path fill="none" stroke="black" d="M617.39,-373.52C639.07,-357.66 669.84,-335.15 692.08,-318.88"/>
<polygon fill="black" stroke="black" points="694.11,-321.74 700.11,-313.01 689.98,-316.09 694.11,-321.74"/>
</g>
<!-- 1234 -->
<g id="node7" class="node">
<title>1234</title>
<ellipse fill="none" stroke="black" cx="591.29" cy="-500.59" rx="28.61" ry="28.61"/>
<text text-anchor="middle" x="591.29" y="-495.16" font-family="Times New Roman,serif" font-size="14.00">1234</text>
</g>
<!-- 1234&#45;&gt;monitoring -->
<g id="edge5" class="edge">
<title>1234&#45;&gt;monitoring</title>
<path fill="none" stroke="black" d="M591.29,-460.48C591.29,-448.73 591.29,-436.01 591.29,-424.91"/>
<polygon fill="black" stroke="black" points="587.79,-460.22 591.29,-470.22 594.79,-460.22 587.79,-460.22"/>
<polygon fill="black" stroke="black" points="594.79,-425.15 591.29,-415.15 587.79,-425.15 594.79,-425.15"/>
</g>
<!-- a.env -->
<g id="node8" class="node">
<title>a.env</title>
<polygon fill="none" stroke="black" points="692.29,-518.59 650.29,-518.59 650.29,-522.59 638.29,-522.59 638.29,-482.59 692.29,-482.59 692.29,-518.59"/>
<polyline fill="none" stroke="black" points="638.29,-518.59 650.29,-518.59"/>
<text text-anchor="middle" x="665.29" y="-495.16" font-family="Times New Roman,serif" font-size="14.00">a.env</text>
</g>
<!-- a.env&#45;&gt;monitoring -->
<g id="edge6" class="edge">
<title>a.env&#45;&gt;monitoring</title>
<path fill="none" stroke="black" d="M653.07,-482.25C641.74,-466.18 624.68,-441.98 611.36,-423.08"/>
<polygon fill="black" stroke="black" points="614.27,-421.15 605.65,-414.99 608.55,-425.18 614.27,-421.15"/>
</g>
<!-- b.env -->
<g id="node9" class="node">
<title>b.env</title>
<polygon fill="none" stroke="black" points="544.29,-518.59 502.29,-518.59 502.29,-522.59 490.29,-522.59 490.29,-482.59 544.29,-482.59 544.29,-518.59"/>
<polyline fill="none" stroke="black" points="490.29,-518.59 502.29,-518.59"/>
<text text-anchor="middle" x="517.29" y="-495.16" font-family="Times New Roman,serif" font-size="14.00">b.env</text>
</g>
<!-- b.env&#45;&gt;monitoring -->
<g id="edge7" class="edge">
<title>b.env&#45;&gt;monitoring</title>
<path fill="none" stroke="black" d="M529.51,-482.25C540.83,-466.18 557.89,-441.98 571.22,-423.08"/>
<polygon fill="black" stroke="black" points="574.02,-425.18 576.92,-414.99 568.3,-421.15 574.02,-425.18"/>
</g>
<!-- backend&#45;&gt;back&#45;tier -->
<g id="edge12" class="edge">
<title>backend&#45;&gt;back&#45;tier</title>
<path fill="none" stroke="black" d="M396.27,-493.72C344.28,-484.05 243.85,-464.79 209.29,-453.98 172.87,-442.58 132.95,-425.13 105.09,-412.1"/>
<polygon fill="black" stroke="black" points="106.93,-409.1 96.4,-407.98 103.94,-415.43 106.93,-409.1"/>
</g>
<!-- backend&#45;&gt;monitoring -->
<g id="edge18" class="edge">
<title>backend&#45;&gt;monitoring</title>
<path fill="none" stroke="black" stroke-dasharray="1,5" d="M458.13,-482.22C472.24,-473.87 489.25,-463.6 504.29,-453.98 521.12,-443.2 539.44,-430.8 554.91,-420.13"/>
<polygon fill="black" stroke="black" points="556.66,-423.17 562.89,-414.6 552.67,-417.42 556.66,-423.17"/>
</g>
<!-- backend&#45;&gt;awesome&#45;parent -->
<g id="edge11" class="edge">
<title>backend&#45;&gt;awesome&#45;parent</title>
<path fill="none" stroke="black" d="M434.46,-482.5C442.91,-456.04 454.93,-404.33 435.29,-367 424.25,-346.03 403.8,-329.08 385.84,-317.25"/>
<polygon fill="black" stroke="black" points="387.81,-314.36 377.47,-312.02 384.09,-320.29 387.81,-314.36"/>
</g>
<!-- backend&#45;&gt;admin -->
<g id="edge13" class="edge">
<title>backend&#45;&gt;admin</title>
<path fill="none" stroke="black" d="M440.21,-482.19C445.71,-473.84 452.15,-463.57 457.29,-453.98 480.91,-409.87 503.45,-356.03 516.02,-324.6"/>
<polygon fill="black" stroke="black" points="519.2,-326.08 519.62,-315.5 512.69,-323.5 519.2,-326.08"/>
</g>
<!-- db&#45;data -->
<g id="node13" class="node">
<title>db&#45;data</title>
<path fill="none" stroke="black" d="M215.66,-408.34C215.66,-410.15 202.5,-411.61 186.29,-411.61 170.08,-411.61 156.91,-410.15 156.91,-408.34 156.91,-408.34 156.91,-378.89 156.91,-378.89 156.91,-377.08 170.08,-375.61 186.29,-375.61 202.5,-375.61 215.66,-377.08 215.66,-378.89 215.66,-378.89 215.66,-408.34 215.66,-408.34"/>
<path fill="none" stroke="black" d="M215.66,-408.34C215.66,-406.53 202.5,-405.07 186.29,-405.07 170.08,-405.07 156.91,-406.53 156.91,-408.34"/>
<text text-anchor="middle" x="186.29" y="-388.19" font-family="Times New Roman,serif" font-size="14.00">db&#45;data</text>
</g>
<!-- backend&#45;&gt;db&#45;data -->
<g id="edge14" class="edge">
<title>backend&#45;&gt;db&#45;data</title>
<path fill="none" stroke="black" stroke-dasharray="5,2" d="M385.49,-491.44C330.98,-480.81 242.26,-462.56 229.29,-453.98 217.14,-445.94 207.26,-433.22 200.04,-421.61"/>
<polygon fill="black" stroke="black" points="384.59,-494.83 395.08,-493.3 385.93,-487.96 384.59,-494.83"/>
<polygon fill="black" stroke="black" points="203.19,-420.06 195.16,-413.16 197.13,-423.57 203.19,-420.06"/>
<text text-anchor="middle" x="242.79" y="-440.68" font-family="Times New Roman,serif" font-size="14.00">/data</text>
</g>
<!-- /var/run/postgres/postgres.sock -->
<g id="node14" class="node">
<title>/var/run/postgres/postgres.sock</title>
<path fill="none" stroke="black" d="M426.79,-408.34C426.79,-410.15 383.53,-411.61 330.29,-411.61 277.04,-411.61 233.79,-410.15 233.79,-408.34 233.79,-408.34 233.79,-378.89 233.79,-378.89 233.79,-377.08 277.04,-375.61 330.29,-375.61 383.53,-375.61 426.79,-377.08 426.79,-378.89 426.79,-378.89 426.79,-408.34 426.79,-408.34"/>
<path fill="none" stroke="black" d="M426.79,-408.34C426.79,-406.53 383.53,-405.07 330.29,-405.07 277.04,-405.07 233.79,-406.53 233.79,-408.34"/>
<text text-anchor="middle" x="330.29" y="-388.19" font-family="Times New Roman,serif" font-size="14.00">/var/run/postgres/postgres.sock</text>
</g>
<!-- backend&#45;&gt;/var/run/postgres/postgres.sock -->
<g id="edge15" class="edge">
<title>backend&#45;&gt;/var/run/postgres/postgres.sock</title>
<path fill="none" stroke="black" stroke-dasharray="5,2" d="M385.17,-493.55C341.67,-486.46 278.89,-473.2 264.29,-453.98 254.15,-440.64 264.52,-427.93 279.8,-417.72"/>
<polygon fill="black" stroke="black" points="384.4,-496.97 394.83,-495.06 385.49,-490.05 384.4,-496.97"/>
<polygon fill="black" stroke="black" points="281.21,-420.96 287.96,-412.79 277.59,-414.97 281.21,-420.96"/>
<text text-anchor="middle" x="352.79" y="-440.68" font-family="Times New Roman,serif" font-size="14.00">/var/run/postgres/postgres.sock</text>
</g>
<!-- 127.0.0.18083&#45;9000 -->
<g id="node15" class="node">
<title>127.0.0.18083&#45;9000</title>
<ellipse fill="none" stroke="black" cx="428.29" cy="-666.94" rx="85.99" ry="85.99"/>
<text text-anchor="middle" x="428.29" y="-661.51" font-family="Times New Roman,serif" font-size="14.00">127.0.0.1:8083&#45;9000</text>
</g>
<!-- 127.0.0.18083&#45;9000&#45;&gt;backend -->
<g id="edge16" class="edge">
<title>127.0.0.18083&#45;9000&#45;&gt;backend</title>
<path fill="none" stroke="black" d="M428.29,-580.87C428.29,-562.7 428.29,-544.71 428.29,-530.48"/>
<polygon fill="black" stroke="black" points="431.79,-530.54 428.29,-520.54 424.79,-530.54 431.79,-530.54"/>
<text text-anchor="middle" x="491.66" y="-549.64" font-family="Times New Roman,serif" font-size="14.00">443 / tcp / WebSocket</text>
</g>
<!-- db -->
<g id="node16" class="node">
<title>db</title>
<polygon fill="none" stroke="black" points="678.79,-686.69 605.79,-686.69 605.79,-682.69 601.79,-682.69 601.79,-678.69 605.79,-678.69 605.79,-655.19 601.79,-655.19 601.79,-651.19 605.79,-651.19 605.79,-647.19 678.79,-647.19 678.79,-686.69"/>
<polyline fill="none" stroke="black" points="605.79,-682.69 609.79,-682.69 609.79,-678.69 605.79,-678.69"/>
<polyline fill="none" stroke="black" points="605.79,-655.19 609.79,-655.19 609.79,-651.19 605.79,-651.19"/>
<text text-anchor="middle" x="642.29" y="-669.39" font-family="Times New Roman,serif" font-size="14.00">db</text>
<text text-anchor="middle" x="642.29" y="-653.64" font-family="Times New Roman,serif" font-size="14.00">(postgres)</text>
</g>
<!-- db&#45;&gt;foo -->
<g id="edge19" class="edge">
<title>db&#45;&gt;foo</title>
<path fill="none" stroke="black" d="M652.98,-646.72C666.78,-620.87 690.32,-573.09 701.29,-529.19 719.52,-456.19 721.25,-366.58 720.86,-323.61"/>
<polygon fill="black" stroke="black" points="724.36,-323.76 720.72,-313.81 717.37,-323.86 724.36,-323.76"/>
</g>
<!-- db&#45;&gt;backend -->
<g id="edge17" class="edge">
<title>db&#45;&gt;backend</title>
<path fill="none" stroke="black" d="M634.4,-647.01C622.31,-620.4 596.6,-572.38 559.29,-547.19 529.8,-527.29 514.66,-541.51 481.29,-529.19 477.13,-527.66 472.89,-525.87 468.71,-523.96"/>
<polygon fill="black" stroke="black" points="470.4,-520.89 459.87,-519.66 467.34,-527.18 470.4,-520.89"/>
<text text-anchor="middle" x="602.66" y="-549.64" font-family="Times New Roman,serif" font-size="14.00">database</text>
</g>
<!-- /dev/ttyUSB2 -->
<g id="node17" class="node">
<title>/dev/ttyUSB2</title>
<polygon fill="none" stroke="black" points="615.16,-858.18 527.41,-858.18 523.41,-854.18 523.41,-822.18 611.16,-822.18 615.16,-826.18 615.16,-858.18"/>
<polyline fill="none" stroke="black" points="611.16,-854.18 523.41,-854.18"/>
<polyline fill="none" stroke="black" points="611.16,-854.18 611.16,-822.18"/>
<polyline fill="none" stroke="black" points="611.16,-854.18 615.16,-858.18"/>
<text text-anchor="middle" x="569.29" y="-834.76" font-family="Times New Roman,serif" font-size="14.00">/dev/ttyUSB2</text>
</g>
<!-- /dev/ttyUSB2&#45;&gt;db -->
<g id="edge20" class="edge">
<title>/dev/ttyUSB2&#45;&gt;db</title>
<path fill="none" stroke="black" d="M571.02,-810.72C572.42,-798.23 574.95,-783.56 579.54,-770.93 589.42,-743.7 606.95,-715.82 620.97,-695.94"/>
<polygon fill="black" stroke="black" points="567.56,-810.1 570.13,-820.38 574.53,-810.74 567.56,-810.1"/>
<polygon fill="black" stroke="black" points="623.62,-698.25 626.64,-688.1 617.95,-694.15 623.62,-698.25"/>
<text text-anchor="middle" x="618.16" y="-789.13" font-family="Times New Roman,serif" font-size="14.00">/dev/ttyUSB3</text>
<text text-anchor="middle" x="618.16" y="-773.38" font-family="Times New Roman,serif" font-size="14.00">(None)</text>
</g>
<!-- /dev/sda -->
<g id="node18" class="node">
<title>/dev/sda</title>
<polygon fill="none" stroke="black" points="699.91,-858.18 640.66,-858.18 636.66,-854.18 636.66,-822.18 695.91,-822.18 699.91,-826.18 699.91,-858.18"/>
<polyline fill="none" stroke="black" points="695.91,-854.18 636.66,-854.18"/>
<polyline fill="none" stroke="black" points="695.91,-854.18 695.91,-822.18"/>
<polyline fill="none" stroke="black" points="695.91,-854.18 699.91,-858.18"/>
<text text-anchor="middle" x="668.29" y="-834.76" font-family="Times New Roman,serif" font-size="14.00">/dev/sda</text>
</g>
<!-- /dev/sda&#45;&gt;db -->
<g id="edge21" class="edge">
<title>/dev/sda&#45;&gt;db</title>
<path fill="none" stroke="black" d="M663.93,-810.49C659.21,-779.43 651.73,-730.11 646.91,-698.39"/>
<polygon fill="black" stroke="black" points="660.46,-810.96 665.42,-820.32 667.38,-809.91 660.46,-810.96"/>
<polygon fill="black" stroke="black" points="650.4,-698.03 645.43,-688.67 643.47,-699.08 650.4,-698.03"/>
<text text-anchor="middle" x="690.66" y="-789.13" font-family="Times New Roman,serif" font-size="14.00">/dev/xvda</text>
<text text-anchor="middle" x="690.66" y="-773.38" font-family="Times New Roman,serif" font-size="14.00">(rwm)</text>
</g>
<!-- service -->
<g id="node19" class="node">
<title>service</title>
<polygon fill="none" stroke="black" points="847.91,-859.93 790.66,-859.93 790.66,-855.93 786.66,-855.93 786.66,-851.93 790.66,-851.93 790.66,-828.43 786.66,-828.43 786.66,-824.43 790.66,-824.43 790.66,-820.43 847.91,-820.43 847.91,-859.93"/>
<polyline fill="none" stroke="black" points="790.66,-855.93 794.66,-855.93 794.66,-851.93 790.66,-851.93"/>
<polyline fill="none" stroke="black" points="790.66,-828.43 794.66,-828.43 794.66,-824.43 790.66,-824.43"/>
<text text-anchor="middle" x="819.29" y="-842.63" font-family="Times New Roman,serif" font-size="14.00">Service</text>
<text text-anchor="middle" x="819.29" y="-826.88" font-family="Times New Roman,serif" font-size="14.00">(image)</text>
</g>
<!-- volume -->
<g id="node20" class="node">
<title>volume</title>
<path fill="none" stroke="black" d="M849.04,-681.67C849.04,-683.47 835.7,-684.94 819.29,-684.94 802.87,-684.94 789.54,-683.47 789.54,-681.67 789.54,-681.67 789.54,-652.21 789.54,-652.21 789.54,-650.4 802.87,-648.94 819.29,-648.94 835.7,-648.94 849.04,-650.4 849.04,-652.21 849.04,-652.21 849.04,-681.67 849.04,-681.67"/>
<path fill="none" stroke="black" d="M849.04,-681.67C849.04,-679.86 835.7,-678.39 819.29,-678.39 802.87,-678.39 789.54,-679.86 789.54,-681.67"/>
<text text-anchor="middle" x="819.29" y="-661.51" font-family="Times New Roman,serif" font-size="14.00">Volume</text>
</g>
<!-- service&#45;&gt;volume -->
<!-- network -->
<g id="node21" class="node">
<title>network</title>
<polygon fill="none" stroke="black" points="871.92,-506.15 819.29,-518.59 766.65,-506.15 786.76,-486.02 851.82,-486.02 871.92,-506.15"/>
<text text-anchor="middle" x="819.29" y="-495.16" font-family="Times New Roman,serif" font-size="14.00">Network</text>
</g>
<!-- volume&#45;&gt;network -->
<!-- port -->
<g id="node22" class="node">
<title>port</title>
<ellipse fill="none" stroke="black" cx="820.29" cy="-393.61" rx="26.61" ry="26.61"/>
<text text-anchor="middle" x="820.29" y="-388.19" font-family="Times New Roman,serif" font-size="14.00">Port</text>
</g>
<!-- network&#45;&gt;port -->
<!-- env_file -->
<g id="node23" class="node">
<title>env_file</title>
<polygon fill="none" stroke="black" points="856.16,-315.25 806.41,-315.25 806.41,-319.25 794.41,-319.25 794.41,-279.25 856.16,-279.25 856.16,-315.25"/>
<polyline fill="none" stroke="black" points="794.41,-315.25 806.41,-315.25"/>
<text text-anchor="middle" x="825.29" y="-291.82" font-family="Times New Roman,serif" font-size="14.00">Env File</text>
</g>
<!-- port&#45;&gt;env_file -->
<!-- profile -->
<g id="node24" class="node">
<title>profile</title>
<polygon fill="none" stroke="black" points="781.91,-203.94 825.29,-191.5 868.67,-203.94 868.63,-224.06 781.95,-224.06 781.91,-203.94"/>
<text text-anchor="middle" x="825.29" y="-204.07" font-family="Times New Roman,serif" font-size="14.00">Profile</text>
</g>
<!-- env_file&#45;&gt;profile -->
<!-- cgroup -->
<g id="node25" class="node">
<title>cgroup</title>
<polygon fill="none" stroke="black" points="829.29,-139.75 764.83,-121.75 829.29,-103.75 893.74,-121.75 829.29,-139.75"/>
<text text-anchor="middle" x="829.29" y="-116.33" font-family="Times New Roman,serif" font-size="14.00">CGroupe</text>
</g>
<!-- profile&#45;&gt;cgroup -->
<!-- device -->
<g id="node26" class="node">
<title>device</title>
<polygon fill="none" stroke="black" points="856.41,-52 806.16,-52 802.16,-48 802.16,-16 852.41,-16 856.41,-20 856.41,-52"/>
<polyline fill="none" stroke="black" points="852.41,-48 802.16,-48"/>
<polyline fill="none" stroke="black" points="852.41,-48 852.41,-16"/>
<polyline fill="none" stroke="black" points="852.41,-48 856.41,-52"/>
<text text-anchor="middle" x="829.29" y="-28.57" font-family="Times New Roman,serif" font-size="14.00">Device</text>
</g>
<!-- cgroup&#45;&gt;device -->
<!-- invis_0 -->
<!-- invis_1 -->
<!-- invis_0&#45;&gt;invis_1 -->
<g id="edge29" class="edge">
<title>invis_0&#45;&gt;invis_1</title>
<path fill="none" stroke="black" d="M927.29,-810.72C927.29,-779.05 927.29,-728.18 927.29,-696.48"/>
<polygon fill="black" stroke="black" points="923.79,-810.31 927.29,-820.31 930.79,-810.31 923.79,-810.31"/>
<polygon fill="black" stroke="black" points="930.79,-696.86 927.29,-686.86 923.79,-696.86 930.79,-696.86"/>
<text text-anchor="middle" x="950.16" y="-781.26" font-family="Times New Roman,serif" font-size="14.00">exposes</text>
</g>
<!-- invis_2 -->
<!-- invis_1&#45;&gt;invis_2 -->
<g id="edge30" class="edge">
<title>invis_1&#45;&gt;invis_2</title>
<path fill="none" stroke="black" d="M927.29,-648.66C927.29,-620.42 927.29,-564.12 927.29,-529.96"/>
<polygon fill="black" stroke="black" points="930.79,-530.39 927.29,-520.39 923.79,-530.39 930.79,-530.39"/>
<text text-anchor="middle" x="940.04" y="-549.64" font-family="Times New Roman,serif" font-size="14.00">links</text>
</g>
<!-- invis_3 -->
<!-- invis_2&#45;&gt;invis_3 -->
<g id="edge31" class="edge">
<title>invis_2&#45;&gt;invis_3</title>
<path fill="none" stroke="black" stroke-dasharray="5,2" d="M924.57,-471.02C923.15,-456.12 921.42,-437.96 920,-423.08"/>
<polygon fill="black" stroke="black" points="921.06,-471.12 925.49,-480.74 928.03,-470.46 921.06,-471.12"/>
<polygon fill="black" stroke="black" points="923.52,-423.1 919.08,-413.48 916.55,-423.77 923.52,-423.1"/>
<text text-anchor="middle" x="956.41" y="-440.68" font-family="Times New Roman,serif" font-size="14.00">volumes_rw</text>
</g>
<!-- invis_4 -->
<!-- invis_3&#45;&gt;invis_4 -->
<g id="edge32" class="edge">
<title>invis_3&#45;&gt;invis_4</title>
<path fill="none" stroke="black" stroke-dasharray="5,2" d="M917.29,-375.31C917.29,-361.74 917.29,-342.57 917.29,-326.75"/>
<polygon fill="black" stroke="black" points="920.79,-326.96 917.29,-316.96 913.79,-326.96 920.79,-326.96"/>
<text text-anchor="middle" x="950.29" y="-335.7" font-family="Times New Roman,serif" font-size="14.00">volumes_ro</text>
</g>
<!-- invis_5 -->
<!-- invis_4&#45;&gt;invis_5 -->
<g id="edge33" class="edge">
<title>invis_4&#45;&gt;invis_5</title>
<path fill="none" stroke="black" stroke-dasharray="1,5" d="M920.32,-278.9C922.33,-267.39 925.02,-252.03 927.34,-238.78"/>
<polygon fill="black" stroke="black" points="930.72,-239.77 928.99,-229.32 923.82,-238.57 930.72,-239.77"/>
<text text-anchor="middle" x="959.79" y="-247.95" font-family="Times New Roman,serif" font-size="14.00">depends_on</text>
</g>
<!-- invis_6 -->
<!-- invis_5&#45;&gt;invis_6 -->
<g id="edge34" class="edge">
<title>invis_5&#45;&gt;invis_6</title>
<path fill="none" stroke="black" d="M937.43,-182.58C939.37,-172.79 941.58,-161.61 943.57,-151.57"/>
<ellipse fill="black" stroke="black" cx="936.6" cy="-186.73" rx="4" ry="4"/>
<polygon fill="black" stroke="black" points="949.19,-141.25 943.81,-150.38 942.32,-139.89 949.19,-141.25"/>
<text text-anchor="middle" x="963.66" y="-160.2" font-family="Times New Roman,serif" font-size="14.00">extends</text>
</g>
<!-- invis_7 -->
<!-- invis_6&#45;&gt;invis_7 -->
<g id="edge35" class="edge">
<title>invis_6&#45;&gt;invis_7</title>
<path fill="none" stroke="black" d="M947.87,-103.4C946.94,-92.01 945.7,-76.84 944.63,-63.68"/>
<polygon fill="black" stroke="black" points="948.13,-63.52 943.82,-53.84 941.15,-64.09 948.13,-63.52"/>
<text text-anchor="middle" x="968.04" y="-72.45" font-family="Times New Roman,serif" font-size="14.00">env_file</text>
</g>
</g>
</svg>
